<svg width="378" height="362" viewBox="0 0 378 362" fill="none" xmlns="http://www.w3.org/2000/svg">
  <path d="M102.993 16.7977C104.564 101.623 150.118 266.56 319.768 247.71C531.831 224.148 81.7872 -63.3148 143.05 52.1415C204.312 167.598 211.381 193.516 272.643 198.229C333.906 202.941 220.806 88.8972 220.806 134.61" stroke="white" stroke-width="2"/>
  <path d="M102.993 30.9356C-52.5191 -68.0274 41.7309 105.55 94.7465 159.351" stroke="white" stroke-width="2"/>
  <path d="M102.993 17.9758L82.9653 142.857" stroke="white" stroke-width="2"/>
  <path d="M348.043 260.67C436.403 365.523 209.417 307.402 159.543 260.67" stroke="white" stroke-width="2"/>
  <path d="M218.45 333.713C81.7872 384.373 20.5254 193.909 18.1692 141.679" stroke="white" stroke-width="2"/>
  <line y1="-1" x2="116.819" y2="-1" transform="matrix(-0.746295 0.665615 0.665615 0.746295 367.575 234.269)" stroke="white" stroke-width="2"/>
  <line y1="-1" x2="124.703" y2="-1" transform="matrix(-0.925848 0.377897 0.377897 0.925848 365.219 314.381)" stroke="white" stroke-width="2"/>
  <line y1="-1" x2="107.306" y2="-1" transform="matrix(-0.329372 0.9442 0.9442 0.329372 96.6062 158.869)" stroke="white" stroke-width="2"/>
  <line y1="-1" x2="77.2907" y2="-1" transform="matrix(-0.609711 0.792624 0.792624 0.609711 164.938 262.544)" stroke="white" stroke-width="2"/>
  <line y1="-1" x2="47.125" y2="-1" transform="matrix(-0.8 0.6 0.6 0.8 216.775 333.231)" stroke="white" stroke-width="2"/>
  <line y1="-1" x2="108.131" y2="-1" transform="matrix(-0.196116 0.980581 0.980581 0.196116 21.2063 142.375)" stroke="white" stroke-width="2"/>
  <path d="M351.234 321.514C363.404 335.425 366.882 348.755 363.404 360.347" stroke="white" stroke-width="2"/>
</svg>
