<svg width="466" height="428" viewBox="0 0 466 428" fill="none" xmlns="http://www.w3.org/2000/svg">
  <path d="M407.75 46.25C415.759 46.25 422.312 53.1125 422.312 61.5V366.309L417.762 360.114L293.98 192.364C289.885 186.741 283.423 183.5 276.688 183.5C269.952 183.5 263.581 186.741 259.395 192.364L183.852 294.73L156.092 254.031C151.996 248.027 145.443 244.5 138.344 244.5C131.245 244.5 124.691 248.027 120.596 254.127L47.7832 360.877L43.6875 366.786V366.5V61.5C43.6875 53.1125 50.2406 46.25 58.25 46.25H407.75ZM58.25 0.5C26.1215 0.5 0 27.8547 0 61.5V366.5C0 400.145 26.1215 427.5 58.25 427.5H407.75C439.879 427.5 466 400.145 466 366.5V61.5C466 27.8547 439.879 0.5 407.75 0.5H58.25ZM131.062 183.5C136.8 183.5 142.481 182.317 147.781 180.017C153.081 177.718 157.897 174.348 161.954 170.1C166.011 165.852 169.229 160.808 171.424 155.258C173.62 149.707 174.75 143.758 174.75 137.75C174.75 131.742 173.62 125.793 171.424 120.242C169.229 114.692 166.011 109.648 161.954 105.4C157.897 101.152 153.081 97.7817 147.781 95.4825C142.481 93.1834 136.8 92 131.062 92C125.325 92 119.644 93.1834 114.344 95.4825C109.044 97.7817 104.228 101.152 100.171 105.4C96.114 109.648 92.896 114.692 90.7005 120.242C88.505 125.793 87.375 131.742 87.375 137.75C87.375 143.758 88.505 149.707 90.7005 155.258C92.896 160.808 96.114 165.852 100.171 170.1C104.228 174.348 109.044 177.718 114.344 180.017C119.644 182.317 125.325 183.5 131.062 183.5Z" fill="#9C87E0"/>
</svg>
