<svg width="366" height="320" viewBox="0 0 366 320" fill="none" xmlns="http://www.w3.org/2000/svg">
<path d="M275.007 16.7977C273.436 101.623 227.882 266.56 58.2316 247.71C-153.831 224.148 296.213 -63.3148 234.95 52.1415C173.688 167.598 166.619 193.516 105.357 198.229C44.094 202.941 157.194 88.8972 157.194 134.61" stroke="#9C87E0" stroke-width="2"/>
<path d="M275.007 30.9356C430.519 -68.0274 336.269 105.55 283.254 159.351" stroke="#9C87E0" stroke-width="2"/>
<path d="M275.007 17.9758L295.035 142.857" stroke="#9C87E0" stroke-width="2"/>
<path d="M29.9563 260.67C-58.4032 365.523 168.582 307.402 218.456 260.67" stroke="#9C87E0" stroke-width="2"/>
<path d="M159.55 333.713C296.212 384.373 357.474 193.909 359.83 141.679" stroke="#9C87E0" stroke-width="2"/>
<line x1="11.0904" y1="233.523" x2="98.2717" y2="311.279" stroke="#9C87E0" stroke-width="2"/>
<line x1="13.1591" y1="313.456" x2="128.615" y2="360.581" stroke="#9C87E0" stroke-width="2"/>
<line x1="282.338" y1="158.539" x2="317.682" y2="259.858" stroke="#9C87E0" stroke-width="2"/>
<line x1="213.855" y1="261.934" x2="260.98" y2="323.197" stroke="#9C87E0" stroke-width="2"/>
<line x1="357.775" y1="142.179" x2="378.981" y2="248.21" stroke="#9C87E0" stroke-width="2"/>
</svg>
