<svg width="378" height="350" viewBox="0 0 378 350" fill="none" xmlns="http://www.w3.org/2000/svg">
<path d="M275.007 16.7977C273.436 101.623 227.882 266.56 58.2316 247.71C-153.831 224.148 296.213 -63.3148 234.95 52.1414C173.688 167.598 166.619 193.516 105.357 198.229C44.094 202.941 157.194 88.8972 157.194 134.61" stroke="#9C87E0" stroke-width="2"/>
<path d="M275.007 30.9356C430.519 -68.0274 336.269 105.55 283.254 159.351" stroke="#9C87E0" stroke-width="2"/>
<path d="M275.007 17.9759L295.035 142.857" stroke="#9C87E0" stroke-width="2"/>
<path d="M29.9568 260.67C-58.4027 365.523 168.583 307.402 218.457 260.67" stroke="#9C87E0" stroke-width="2"/>
<path d="M159.55 333.713C296.213 384.373 357.475 193.909 359.831 141.679" stroke="#9C87E0" stroke-width="2"/>
<line x1="11.0904" y1="233.523" x2="98.2717" y2="311.279" stroke="#9C87E0" stroke-width="2"/>
<line x1="13.1591" y1="313.455" x2="128.615" y2="360.58" stroke="#9C87E0" stroke-width="2"/>
<line x1="282.338" y1="158.539" x2="317.682" y2="259.858" stroke="#9C87E0" stroke-width="2"/>
<line x1="213.855" y1="261.934" x2="260.98" y2="323.197" stroke="#9C87E0" stroke-width="2"/>
<line x1="161.825" y1="332.431" x2="199.525" y2="360.706" stroke="#9C87E0" stroke-width="2"/>
<line x1="357.775" y1="142.179" x2="378.981" y2="248.21" stroke="#9C87E0" stroke-width="2"/>
<path d="M26.7662 321.514C14.5955 335.425 11.1181 348.755 14.5954 360.347" stroke="#9C87E0" stroke-width="2"/>
</svg>
